<svg xmlns="http://www.w3.org/2000/svg" width="256" height="256" viewBox="0 0 100 100"><path d="M44.26 59.26L44.22 21.56L33.32 21.56L33.28 59.26Q33.24 62.03 32.70 64.14Q32.15 66.25 31.05 67.66L31.05 67.66Q30.04 69.02 28.50 69.71Q26.95 70.39 24.96 70.39L24.96 70.39Q23.13 70.39 21.72 69.75Q20.31 69.10 19.34 67.81L19.34 67.81Q18.28 66.41 17.75 64.26Q17.23 62.11 17.19 59.26L17.19 59.26L17.15 21.56L6.17 21.56L6.13 59.26Q6.13 64.02 7.48 67.75Q8.83 71.48 11.29 74.02L11.29 74.02Q13.75 76.56 17.21 77.89Q20.66 79.22 24.96 79.22L24.96 79.22Q29.53 79.22 33.11 77.89Q36.68 76.56 39.18 73.98L39.18 73.98Q41.64 71.45 42.95 67.73Q44.26 64.02 44.26 59.26L44.26 59.26ZM93.83 60.63L93.83 60.63L82.85 60.63Q82.70 63.20 81.99 65.04Q81.29 66.88 80.08 68.05L80.08 68.05Q78.87 69.22 77.15 69.77Q75.43 70.31 73.28 70.31L73.28 70.31Q71.68 70.31 70.37 69.94Q69.06 69.57 68.01 68.79L68.01 68.79Q67.03 68.09 66.27 67.03Q65.51 65.98 64.96 64.61L64.96 64.61Q64.18 62.62 63.81 59.94Q63.44 57.27 63.44 53.87L63.44 53.87L63.44 46.13Q63.44 43.63 63.67 41.46Q63.91 39.30 64.41 37.50L64.41 37.50Q65.08 35.20 66.19 33.46Q67.30 31.72 68.91 30.78L68.91 30.78Q69.84 30.23 70.96 29.96Q72.07 29.69 73.36 29.69L73.36 29.69Q75.78 29.69 77.52 30.33Q79.26 30.98 80.43 32.23L80.43 32.23Q81.56 33.52 82.17 35.43Q82.77 37.34 82.93 39.88L82.93 39.88L93.87 39.88Q93.48 35.43 91.99 31.88Q90.51 28.32 87.93 25.86L87.93 25.86Q85.35 23.40 81.70 22.07Q78.05 20.74 73.36 20.74L73.36 20.74Q70.20 20.74 67.44 21.54Q64.69 22.34 62.38 23.83L62.38 23.83Q59.80 25.59 57.77 28.13Q55.74 30.66 54.49 33.91L54.49 33.91Q53.40 36.56 52.85 39.67Q52.30 42.77 52.30 46.21L52.30 46.21L52.30 53.87Q52.30 57.54 52.91 60.82Q53.52 64.10 54.65 66.84L54.65 66.84Q55.82 69.57 57.52 71.84Q59.22 74.10 61.41 75.70L61.41 75.70Q63.79 77.42 66.78 78.34Q69.77 79.26 73.28 79.26L73.28 79.26Q77.73 79.26 81.41 77.95Q85.08 76.64 87.73 74.22L87.73 74.22Q90.39 71.80 91.97 68.36Q93.55 64.92 93.83 60.63Z" fill="#87a4e6"></path></svg>